<?xml version="1.0" encoding="utf-8"?>
<!-- Generator: Adobe Illustrator 19.0.0, SVG Export Plug-In . SVG Version: 6.00 Build 0)  -->
<svg version="1.1" xmlns="http://www.w3.org/2000/svg" xmlns:xlink="http://www.w3.org/1999/xlink" x="0px" y="0px"
	 viewBox="120 -12 800 1024" style="enable-background:new 120 -12 800 1024;" xml:space="preserve">
<style type="text/css">
	.st0{fill:#56BA85;}
	.st1{fill:#010201;}
	.st2{font-family:'AgencyFB-Bold';}
	.st3{font-size:21.3109px;}
	.st4{font-size:14.2373px;}
	.st5{letter-spacing:1;}
	.st6{fill:#3B125B;}
	.st7{fill:#D37016;}
	.st8{font-size:18.4765px;}
	.st9{font-size:15.26px;}
	.st10{fill:none;}
	.st11{font-family:'MyriadPro-Regular';}
	.st12{font-size:12.5007px;}
	.st13{fill:#F43D72;}
	.st14{font-size:22.1154px;}
	.st15{fill:none;stroke:#000000;stroke-width:4;stroke-miterlimit:10;}
	.st16{font-family:'BernardMT-Condensed';}
	.st17{font-size:37.4998px;}
	.st18{font-size:21.236px;}
	.st19{enable-background:new    ;}
</style>
<g id="Layer_2">
	
		<image style="overflow:visible;" width="589" height="754" xlink:href="back.jpg"  transform="matrix(1.3585 0 0 1.3585 119.8491 -13.2102)">
	</image>
	<g id="plastic">
		<g id="paper">
			<ellipse id="XMLID_9_" class="st0" cx="309.8" cy="208.1" rx="28.1" ry="28.3"/>
			<text transform="matrix(0.9929 0 0 1 225.8419 185.6063)" class="st1 st2 st3">8.5 </text>
			<path id="blueline_1_" class="st0" d="M284.2,177.8c16.6-14.2,41.6-12.2,55.8,4.6c1.3,1.5,2.4,3.1,3.4,4.7c1,1.6,0.5,3.7-1.1,4.7
				c-1.6,1-3.7,0.5-4.7-1.1c-0.8-1.4-1.8-2.7-2.8-3.9c-11.7-13.9-32.4-15.6-46.1-3.8c-13.8,11.8-15.4,32.6-3.8,46.4
				c11.7,13.9,32.4,15.6,46.1,3.8c3.4-2.9,6.1-6.4,8.1-10.4c0.8-1.7,2.9-2.4,4.6-1.5c1.7,0.9,2.4,2.9,1.5,4.6
				c-2.4,4.8-5.7,9-9.8,12.5c-16.6,14.2-41.6,12.2-55.8-4.6C265.5,217.2,267.6,192,284.2,177.8z"/>
			<path id="XMLID_7_" class="st0" d="M605.2,207.8c0-21.7-32.4-39.2-72.5-39.4v0H348.8c-5.7,0-8.1,7.3-3.5,10.7
				c11,8.2,17.4,18.3,17.4,29.2c0,10.6-6.1,20.4-16.5,28.5c-4.4,3.4-2,10.6,3.6,10.6h182.9v0C572.8,247,605.2,229.4,605.2,207.8z"/>
			<text id="XMLID_2_" transform="matrix(0.9929 0 0 1 292.8057 212.1905)" class="st2 st4 st5">paper</text>
		</g>
		<path id="blueline" class="st6" d="M309.7,260.5c-29.1,0-52.8-23.8-52.8-53.2c0-2.6,0.2-5.2,0.6-7.8c0.4-2.5,2.7-4.2,5.2-3.9
			c2.5,0.4,4.2,2.7,3.8,5.2c-0.3,2.1-0.5,4.3-0.5,6.5c0,24.2,19.6,44,43.7,44c24.1,0,43.7-19.7,43.7-44s-19.6-44-43.7-44
			c-5.9,0-11.7,1.2-17.1,3.5c-2.3,1-5-0.1-6-2.4c-1-2.3,0.1-5,2.4-6c6.6-2.8,13.5-4.2,20.7-4.2c29.1,0,52.8,23.8,52.8,53.2
			C362.5,236.6,338.8,260.5,309.7,260.5z"/>
		<g id="XMLID_8_">
			<ellipse id="XMLID_12_" class="st7" cx="310.4" cy="362.3" rx="28.1" ry="28.3"/>
			<text id="blueline_7_" transform="matrix(0.9929 0 0 1 227.1661 334.8439)" class="st2 st8">80 %</text>
			<path id="blueline_6_" class="st7" d="M284.8,331.9c16.6-14.2,41.6-12.2,55.8,4.6c1.3,1.5,2.4,3.1,3.4,4.7c1,1.6,0.5,3.7-1.1,4.7
				c-1.6,1-3.7,0.5-4.7-1.1c-0.8-1.4-1.8-2.7-2.8-3.9c-11.7-13.9-32.4-15.6-46.1-3.8c-13.8,11.8-15.4,32.6-3.8,46.4
				c11.7,13.9,32.4,15.6,46.1,3.8c3.4-2.9,6.1-6.4,8.1-10.4c0.8-1.7,2.9-2.4,4.6-1.5c1.7,0.9,2.4,2.9,1.5,4.6
				c-2.4,4.8-5.7,9-9.8,12.5c-16.6,14.2-41.6,12.2-55.8-4.6C266.1,371.4,268.2,346.2,284.8,331.9z"/>
			<path id="XMLID_11_" class="st7" d="M605.2,361.9c0-21.7-33-39.2-73.8-39.4v0H353.2c-8.3,0-12.3,10.1-6.3,15.9
				c7.3,7.1,11.5,15.3,11.5,23.9c0,8.4-3.9,16.3-10.8,23.3c-5.8,5.8-1.8,15.8,6.4,15.8h177.4v0C572.2,401.2,605.2,383.6,605.2,361.9
				z"/>
			<text id="XMLID_13_" transform="matrix(0.9929 0 0 1 293.1006 366.047)" class="st2 st9 st5">glass</text>
		</g>
		<path id="blueline_5_" class="st6" d="M310.3,414.7c-29.1,0-52.8-23.8-52.8-53.2c0-2.6,0.2-5.2,0.6-7.8c0.4-2.5,2.7-4.2,5.2-3.9
			c2.5,0.4,4.2,2.7,3.8,5.2c-0.3,2.1-0.5,4.3-0.5,6.5c0,24.2,19.6,44,43.7,44s43.7-19.7,43.7-44c0-24.2-19.6-44-43.7-44
			c-5.9,0-11.7,1.2-17.1,3.5c-2.3,1-5-0.1-6-2.4c-1-2.3,0.1-5,2.4-6c6.6-2.8,13.5-4.2,20.7-4.2c29.1,0,52.8,23.8,52.8,53.2
			C363.1,390.8,339.4,414.7,310.3,414.7"/>
		<rect id="XMLID_1_" x="412.5" y="339" class="st10" width="156" height="48.2"/>
		<text transform="matrix(0.9929 0 0 1 369.2637 190.6886)" class="st11 st12">1 trillion pages of paper </text>
		<text transform="matrix(0.9929 0 0 1 369.2637 205.69)" class="st11 st12">equal 8.5 million acres of trees. T</text>
		<text transform="matrix(0.9929 0 0 1 369.2637 220.691)" class="st11 st12">hat is an area greater than the state of </text>
		<text transform="matrix(0.9929 0 0 1 369.2637 235.692)" class="st11 st12">Maryland.</text>
		<g id="XMLID_19_">
			<ellipse id="XMLID_23_" class="st13" cx="307.6" cy="527.2" rx="28.1" ry="28.3"/>
			<text id="blueline_11_" transform="matrix(0.9929 0 0 1 227.049 500.757)" class="st2 st14">X2</text>
			<path id="blueline_10_" class="st13" d="M282,496.8c16.6-14.2,41.6-12.2,55.8,4.6c1.3,1.5,2.4,3.1,3.4,4.7c1,1.6,0.5,3.7-1.1,4.7
				c-1.6,1-3.7,0.5-4.7-1.1c-0.8-1.4-1.8-2.7-2.8-3.9c-11.7-13.9-32.4-15.6-46.1-3.8c-13.8,11.8-15.4,32.6-3.8,46.4
				c11.7,13.9,32.4,15.6,46.1,3.8c3.4-2.9,6.1-6.4,8.1-10.4c0.8-1.7,2.9-2.4,4.6-1.5c1.7,0.9,2.4,2.9,1.5,4.6
				c-2.4,4.8-5.7,9-9.8,12.5c-16.6,14.2-41.6,12.2-55.8-4.6C263.3,536.3,265.4,511.1,282,496.8z"/>
			<path id="XMLID_21_" class="st13" d="M602.4,526.8c0-21.7-33-39.2-73.8-39.4v0H350.4c-8.3,0-12.3,10.1-6.3,15.9
				c7.3,7.1,11.5,15.3,11.5,23.9c0,8.4-3.9,16.3-10.8,23.3c-5.8,5.8-1.8,15.8,6.4,15.8h177.4v0C569.5,566.1,602.4,548.5,602.4,526.8
				z"/>
			<text id="XMLID_20_" transform="matrix(0.9929 0 0 1 284.1153 530.3468)" class="st2 st9 st5">plastic</text>
		</g>
		<path id="blueline_9_" class="st6" d="M307.5,579.6c-29.1,0-52.8-23.8-52.8-53.2c0-2.6,0.2-5.2,0.6-7.8c0.4-2.5,2.7-4.2,5.2-3.9
			c2.5,0.4,4.2,2.7,3.8,5.2c-0.3,2.1-0.5,4.3-0.5,6.5c0,24.2,19.6,44,43.7,44s43.7-19.7,43.7-44c0-24.2-19.6-44-43.7-44
			c-5.9,0-11.7,1.2-17.1,3.5c-2.3,1-5-0.1-6-2.4c-1-2.3,0.1-5,2.4-6c6.6-2.8,13.5-4.2,20.7-4.2c29.1,0,52.8,23.8,52.8,53.2
			C360.3,555.7,336.6,579.6,307.5,579.6"/>
		<rect id="XMLID_22_" x="409.8" y="503.9" class="st10" width="156" height="48.2"/>
		<rect id="bar_3_" x="300.1" y="882.1" class="st13" width="50.8" height="93.9"/>
		<rect id="bar_2_" x="385.2" y="773" class="st7" width="50.8" height="203"/>
		<rect id="bar_1_" x="474" y="765.3" class="st0" width="50.8" height="210.7"/>
		<rect id="barBor" x="263" y="709" class="st15" width="275.1" height="267.4"/>
	</g>
	<g id="Layer_3">
	</g>
	<line id="hLine" class="st15" x1="264.2" y1="101.9" x2="768" y2="101.9"/>
	
		<image style="overflow:visible;" width="554" height="720" id="picture_1_" xlink:href="paper.png"  transform="matrix(0.165 0 0 0.165 677.5728 148.7286)">
	</image>
	
		<image style="overflow:visible;" width="960" height="637" xlink:href="plastic.png"  transform="matrix(0.1579 0 0 0.1579 654.2394 479.0013)">
	</image>
	<line id="hLine_1_" class="st15" x1="264.2" y1="624" x2="768" y2="624"/>
	
		<image style="overflow:visible;" width="397" height="361" id="picture" xlink:href="glass.png"  transform="matrix(0.3433 0 0 0.3433 659.7902 307.5572)">
	</image>
</g>
<g id="texts">
	<text transform="matrix(1 0 0 1 277.4895 685.0807)" class="st16 st17">Chart :</text>
	<text id="blueline_2_" transform="matrix(0.9929 0 0 1 316.5181 872.7571)" class="st2 st14">X2</text>
	<text id="blueline_4_" transform="matrix(0.9929 0 0 1 392.9996 765.291)" class="st2 st18">80 %</text>
	<text transform="matrix(0.9929 0 0 1 475.8419 733.6063)" class="st19"><tspan x="0" y="0" class="st1 st2 st3">  8.5 </tspan><tspan x="0" y="25.6" class="st1 st2 st3">Million </tspan></text>
	<text transform="matrix(0.9929 0 0 1 365.5977 509.8204)" class="st11 st12">Recycling plastic saves twice as much </text>
	<text transform="matrix(0.9929 0 0 1 365.5977 524.8214)" class="st11 st12">energy as it takes </text>
	<text transform="matrix(0.9929 0 0 1 365.5977 539.8224)" class="st11 st12">to burn it.</text>
	<text transform="matrix(0.9929 0 0 1 368.377 344.9244)" class="st11 st12"> An estimated 80% of all glass containers </text>
	<text transform="matrix(0.9929 0 0 1 368.377 359.9259)" class="st11 st12">recovered for recycling are re-melted in </text>
	<text transform="matrix(0.9929 0 0 1 368.377 374.9269)" class="st11 st12">furnaces and used to manufacture of </text>
	<text transform="matrix(0.9929 0 0 1 368.377 389.9279)" class="st11 st12">new glass containers.  </text>
	<text id="XMLID_14_" transform="matrix(1 0 0 1 371.9131 70.0977)" class="st16 st17">Food Waste Facts </text>
</g>
</svg>
