<?xml version="1.0" encoding="utf-8"?>
<!-- Generator: Adobe Illustrator 19.0.0, SVG Export Plug-In . SVG Version: 6.00 Build 0)  -->
<svg version="1.1" id="Layer_2" xmlns="http://www.w3.org/2000/svg" xmlns:xlink="http://www.w3.org/1999/xlink" x="0px" y="0px"
	 viewBox="120 -12 800 1024" style="enable-background:new 120 -12 800 1024;" xml:space="preserve">
<style type="text/css">
	.st0{fill:#56BA85;}
	.st1{fill:#010201;}
	.st2{font-family:'AgencyFB-Bold';}
	.st3{font-size:21.3109px;}
	.st4{font-size:14.2373px;}
	.st5{letter-spacing:1;}
	.st6{fill:#3B125B;}
	.st7{fill:#D37016;}
	.st8{font-size:18.4765px;}
	.st9{font-size:15.26px;}
	.st10{font-family:'MyriadPro-Regular';}
	.st11{font-size:12.5007px;}
	.st12{fill:none;}
	.st13{font-family:'BernardMT-Condensed';}
	.st14{font-size:37.4998px;}
	.st15{fill:#F43D72;}
	.st16{font-size:22.1154px;}
	.st17{fill:#1B1464;}
	.st18{fill:#F15A24;}
	.st19{fill:#F9F919;}
	.st20{fill:#FF00FF;}
	.st21{fill:none;stroke:#000000;stroke-width:4;stroke-miterlimit:10;}
</style>
<g id="plastic">
	<g id="paper">
		<ellipse id="XMLID_9_" class="st0" cx="339.8" cy="208.1" rx="28.1" ry="28.3"/>
		<text transform="matrix(0.9929 0 0 1 255.8419 185.6063)" class="st1 st2 st3">8.5 </text>
		<path id="blueline_1_" class="st0" d="M314.2,177.8c16.6-14.2,41.6-12.2,55.8,4.6c1.3,1.5,2.4,3.1,3.4,4.7c1,1.6,0.5,3.7-1.1,4.7
			c-1.6,1-3.7,0.5-4.7-1.1c-0.8-1.4-1.8-2.7-2.8-3.9c-11.7-13.9-32.4-15.6-46.1-3.8c-13.8,11.8-15.4,32.6-3.8,46.4
			c11.7,13.9,32.4,15.6,46.1,3.8c3.4-2.9,6.1-6.4,8.1-10.4c0.8-1.7,2.9-2.4,4.6-1.5c1.7,0.9,2.4,2.9,1.5,4.6
			c-2.4,4.8-5.7,9-9.8,12.5c-16.6,14.2-41.6,12.2-55.8-4.6C295.5,217.2,297.6,192,314.2,177.8z"/>
		<path id="XMLID_7_" class="st0" d="M635.2,207.8c0-21.7-32.4-39.2-72.5-39.4v0H378.8c-5.7,0-8.1,7.3-3.5,10.7
			c11,8.2,17.4,18.3,17.4,29.2c0,10.6-6.1,20.4-16.5,28.5c-4.4,3.4-2,10.6,3.6,10.6h182.9v0C602.8,247,635.2,229.4,635.2,207.8z"/>
		<text id="XMLID_2_" transform="matrix(0.9929 0 0 1 322.8057 212.1905)" class="st2 st4 st5">paper</text>
	</g>
	<path id="blueline" class="st6" d="M339.7,260.5c-29.1,0-52.8-23.8-52.8-53.2c0-2.6,0.2-5.2,0.6-7.8c0.4-2.5,2.7-4.2,5.2-3.9
		c2.5,0.4,4.2,2.7,3.8,5.2c-0.3,2.1-0.5,4.3-0.5,6.5c0,24.2,19.6,44,43.7,44c24.1,0,43.7-19.7,43.7-44s-19.6-44-43.7-44
		c-5.9,0-11.7,1.2-17.1,3.5c-2.3,1-5-0.1-6-2.4c-1-2.3,0.1-5,2.4-6c6.6-2.8,13.5-4.2,20.7-4.2c29.1,0,52.8,23.8,52.8,53.2
		C392.5,236.6,368.8,260.5,339.7,260.5z"/>
	<g id="XMLID_8_">
		<ellipse id="XMLID_12_" class="st7" cx="340.4" cy="362.3" rx="28.1" ry="28.3"/>
		<text id="blueline_7_" transform="matrix(0.9929 0 0 1 257.1661 334.8439)" class="st2 st8">80 %</text>
		<path id="blueline_6_" class="st7" d="M314.8,331.9c16.6-14.2,41.6-12.2,55.8,4.6c1.3,1.5,2.4,3.1,3.4,4.7c1,1.6,0.5,3.7-1.1,4.7
			c-1.6,1-3.7,0.5-4.7-1.1c-0.8-1.4-1.8-2.7-2.8-3.9c-11.7-13.9-32.4-15.6-46.1-3.8c-13.8,11.8-15.4,32.6-3.8,46.4
			c11.7,13.9,32.4,15.6,46.1,3.8c3.4-2.9,6.1-6.4,8.1-10.4c0.8-1.7,2.9-2.4,4.6-1.5c1.7,0.9,2.4,2.9,1.5,4.6
			c-2.4,4.8-5.7,9-9.8,12.5c-16.6,14.2-41.6,12.2-55.8-4.6C296.1,371.4,298.2,346.2,314.8,331.9z"/>
		<path id="XMLID_11_" class="st7" d="M635.2,361.9c0-21.7-33-39.2-73.8-39.4v0H383.2c-8.3,0-12.3,10.1-6.3,15.9
			c7.3,7.1,11.5,15.3,11.5,23.9c0,8.4-3.9,16.3-10.8,23.3c-5.8,5.8-1.8,15.8,6.4,15.8h177.4v0C602.2,401.2,635.2,383.6,635.2,361.9z
			"/>
		<text id="XMLID_13_" transform="matrix(0.9929 0 0 1 323.1006 366.047)" class="st2 st9 st5">glass</text>
	</g>
	<path id="blueline_5_" class="st6" d="M340.3,414.7c-29.1,0-52.8-23.8-52.8-53.2c0-2.6,0.2-5.2,0.6-7.8c0.4-2.5,2.7-4.2,5.2-3.9
		c2.5,0.4,4.2,2.7,3.8,5.2c-0.3,2.1-0.5,4.3-0.5,6.5c0,24.2,19.6,44,43.7,44s43.7-19.7,43.7-44c0-24.2-19.6-44-43.7-44
		c-5.9,0-11.7,1.2-17.1,3.5c-2.3,1-5-0.1-6-2.4c-1-2.3,0.1-5,2.4-6c6.6-2.8,13.5-4.2,20.7-4.2c29.1,0,52.8,23.8,52.8,53.2
		C393.1,390.8,369.4,414.7,340.3,414.7"/>
	<text transform="matrix(0.9929 0 0 1 398.377 344.9244)" class="st10 st11"> An estimated 80% of all glass containers </text>
	<text transform="matrix(0.9929 0 0 1 398.377 359.9259)" class="st10 st11">recovered for recycling are re-melted in </text>
	<text transform="matrix(0.9929 0 0 1 398.377 374.9269)" class="st10 st11">furnaces and used to manufacture of </text>
	<text transform="matrix(0.9929 0 0 1 398.377 389.9279)" class="st10 st11">new glass containers.  </text>
	<rect id="XMLID_1_" x="442.5" y="339" class="st12" width="156" height="48.2"/>
	<text id="XMLID_14_" transform="matrix(1 0 0 1 433.9131 70.0977)" class="st13 st14">Food Waste Facts </text>
	<text transform="matrix(0.9929 0 0 1 399.2637 190.6886)" class="st10 st11">1 trillion pages of paper </text>
	<text transform="matrix(0.9929 0 0 1 399.2637 205.69)" class="st10 st11">equal 8.5 million acres of trees. T</text>
	<text transform="matrix(0.9929 0 0 1 399.2637 220.691)" class="st10 st11">hat is an area greater than the state of </text>
	<text transform="matrix(0.9929 0 0 1 399.2637 235.692)" class="st10 st11">Maryland.</text>
	<g id="XMLID_19_">
		<ellipse id="XMLID_23_" class="st15" cx="337.6" cy="527.2" rx="28.1" ry="28.3"/>
		<text id="blueline_11_" transform="matrix(0.9929 0 0 1 257.049 500.757)" class="st2 st16">X2</text>
		<path id="blueline_10_" class="st15" d="M312,496.8c16.6-14.2,41.6-12.2,55.8,4.6c1.3,1.5,2.4,3.1,3.4,4.7c1,1.6,0.5,3.7-1.1,4.7
			c-1.6,1-3.7,0.5-4.7-1.1c-0.8-1.4-1.8-2.7-2.8-3.9c-11.7-13.9-32.4-15.6-46.1-3.8c-13.8,11.8-15.4,32.6-3.8,46.4
			c11.7,13.9,32.4,15.6,46.1,3.8c3.4-2.9,6.1-6.4,8.1-10.4c0.8-1.7,2.9-2.4,4.6-1.5c1.7,0.9,2.4,2.9,1.5,4.6
			c-2.4,4.8-5.7,9-9.8,12.5c-16.6,14.2-41.6,12.2-55.8-4.6C293.3,536.3,295.4,511.1,312,496.8z"/>
		<path id="XMLID_21_" class="st15" d="M632.4,526.8c0-21.7-33-39.2-73.8-39.4v0H380.4c-8.3,0-12.3,10.1-6.3,15.9
			c7.3,7.1,11.5,15.3,11.5,23.9c0,8.4-3.9,16.3-10.8,23.3c-5.8,5.8-1.8,15.8,6.4,15.8h177.4v0C599.5,566.1,632.4,548.5,632.4,526.8z
			"/>
		<text id="XMLID_20_" transform="matrix(0.9929 0 0 1 314.1153 530.3468)" class="st2 st9 st5">plastic</text>
	</g>
	<path id="blueline_9_" class="st6" d="M337.5,579.6c-29.1,0-52.8-23.8-52.8-53.2c0-2.6,0.2-5.2,0.6-7.8c0.4-2.5,2.7-4.2,5.2-3.9
		c2.5,0.4,4.2,2.7,3.8,5.2c-0.3,2.1-0.5,4.3-0.5,6.5c0,24.2,19.6,44,43.7,44s43.7-19.7,43.7-44c0-24.2-19.6-44-43.7-44
		c-5.9,0-11.7,1.2-17.1,3.5c-2.3,1-5-0.1-6-2.4c-1-2.3,0.1-5,2.4-6c6.6-2.8,13.5-4.2,20.7-4.2c29.1,0,52.8,23.8,52.8,53.2
		C390.3,555.7,366.6,579.6,337.5,579.6"/>
	<text transform="matrix(0.9929 0 0 1 395.5977 509.8204)" class="st10 st11">Recycling plastic saves twice as much </text>
	<text transform="matrix(0.9929 0 0 1 395.5977 524.8214)" class="st10 st11">energy as it takes </text>
	<text transform="matrix(0.9929 0 0 1 395.5977 539.8224)" class="st10 st11">to burn it.</text>
	<rect id="XMLID_22_" x="439.8" y="503.9" class="st12" width="156" height="48.2"/>
	<rect id="bar" x="308.7" y="906.1" class="st17" width="50.8" height="40"/>
	<g id="_x32_0">
		<path id="XMLID_29_" d="M314.5,903.2v-1.9l1.8-1.6c3-2.7,4.5-4.2,4.5-5.8c0-1.1-0.7-2-2.3-2c-1.2,0-2.2,0.6-2.9,1.1l-0.9-2.3
			c1-0.8,2.6-1.4,4.5-1.4c3.1,0,4.8,1.8,4.8,4.3c0,2.3-1.7,4.1-3.7,5.9l-1.3,1.1v0h5.2v2.6H314.5z"/>
		<path id="XMLID_24_" d="M336.3,896.3c0,4.2-1.7,7.2-5.2,7.2c-3.5,0-5.1-3.2-5.1-7.1c0-4,1.7-7.1,5.2-7.1
			C334.9,889.3,336.3,892.5,336.3,896.3z M329.2,896.4c0,3.1,0.7,4.6,2,4.6c1.2,0,1.9-1.6,1.9-4.7c0-3-0.7-4.6-1.9-4.6
			C330,891.7,329.2,893.2,329.2,896.4z"/>
		<path id="XMLID_3_" d="M345.2,893.3c0,2.9-1.8,4.4-3.8,4.4c-2.1,0-3.7-1.6-3.7-4.1c0-2.4,1.5-4.3,3.8-4.3
			C343.8,889.3,345.2,891,345.2,893.3z M340,893.5c0,1.4,0.5,2.5,1.4,2.5c0.9,0,1.4-0.9,1.4-2.5c0-1.4-0.4-2.5-1.4-2.5
			C340.4,891,340,892.1,340,893.5z M341.5,903.5l7.9-14.2h1.7l-7.9,14.2H341.5z M355,899.1c0,2.9-1.8,4.4-3.8,4.4
			c-2.1,0-3.7-1.6-3.7-4.1c0-2.4,1.5-4.3,3.8-4.3C353.7,895,355,896.7,355,899.1z M349.9,899.2c0,1.4,0.5,2.5,1.4,2.5
			c0.9,0,1.4-0.9,1.4-2.5c0-1.4-0.4-2.5-1.4-2.5C350.3,896.7,349.9,897.8,349.9,899.2z"/>
	</g>
	<rect id="bar_3_" x="371.1" y="852.1" class="st18" width="50.8" height="93.9"/>
	<g id="thirtyFive_1_">
		<path id="XMLID_139_" d="M377.3,845.3c0.6,0.3,1.9,0.8,3.2,0.8c1.7,0,2.5-0.8,2.5-1.8c0-1.4-1.4-2-2.8-2H379V840h1.2
			c1.1,0,2.4-0.4,2.4-1.6c0-0.8-0.7-1.4-2-1.4c-1.1,0-2.3,0.5-2.9,0.8l-0.7-2.3c0.8-0.5,2.5-1,4.2-1c2.9,0,4.6,1.5,4.6,3.4
			c0,1.5-0.8,2.6-2.5,3.2v0c1.6,0.3,3,1.5,3,3.3c0,2.4-2.1,4.2-5.6,4.2c-1.8,0-3.3-0.5-4.1-1L377.3,845.3z"/>
		<path id="XMLID_137_" d="M397.7,837.4h-5.3l-0.3,2.1c0.3,0,0.5,0,0.9,0c1.3,0,2.6,0.3,3.6,1c1,0.7,1.7,1.8,1.7,3.4
			c0,2.6-2.2,4.8-5.9,4.8c-1.7,0-3.1-0.4-3.8-0.8l0.6-2.4c0.6,0.3,1.9,0.7,3.1,0.7c1.3,0,2.7-0.6,2.7-2.1c0-1.4-1.1-2.3-3.9-2.3
			c-0.8,0-1.3,0-1.9,0.1l0.9-7.2h7.6V837.4z"/>
		<path id="XMLID_27_" d="M407.4,838.6c0,2.9-1.8,4.4-3.8,4.4c-2.1,0-3.7-1.6-3.7-4.1c0-2.4,1.5-4.3,3.8-4.3
			C406.1,834.5,407.4,836.2,407.4,838.6z M402.3,838.7c0,1.4,0.5,2.5,1.4,2.5c0.9,0,1.4-0.9,1.4-2.5c0-1.4-0.4-2.5-1.4-2.5
			C402.7,836.2,402.3,837.3,402.3,838.7z M403.8,848.7l7.9-14.2h1.7l-7.9,14.2H403.8z M417.3,844.3c0,2.9-1.8,4.4-3.8,4.4
			c-2.1,0-3.7-1.6-3.7-4.1c0-2.4,1.5-4.3,3.8-4.3C416,840.2,417.3,841.9,417.3,844.3z M412.2,844.4c0,1.4,0.5,2.5,1.4,2.5
			c0.9,0,1.4-0.9,1.4-2.5c0-1.4-0.4-2.5-1.4-2.5C412.6,841.9,412.2,843,412.2,844.4z"/>
	</g>
	<rect id="bar_2_" x="435.2" y="809.5" class="st19" width="50.8" height="136.6"/>
	<g id="fourtySeven_1_">
		<path id="XMLID_310_" d="M446.8,806.1v-3.3h-6.1v-2.1l5.2-8.4h3.9v8h1.6v2.4h-1.6v3.3H446.8z M446.8,800.4v-3c0-0.8,0-1.7,0.1-2.6
			h-0.1c-0.4,0.9-0.8,1.7-1.3,2.6l-1.8,3v0H446.8z"/>
		<path id="XMLID_155_" d="M462.7,792.4v2l-5.7,11.7h-3.4l5.7-11v0H453v-2.6H462.7z"/>
		<path id="XMLID_141_" d="M471.8,796.2c0,2.9-1.8,4.4-3.8,4.4c-2.1,0-3.7-1.6-3.7-4.1c0-2.4,1.5-4.3,3.8-4.3
			C470.4,792.1,471.8,793.9,471.8,796.2z M466.6,796.3c0,1.4,0.5,2.5,1.4,2.5c0.9,0,1.4-0.9,1.4-2.5c0-1.4-0.4-2.5-1.4-2.5
			C467.1,793.9,466.6,795,466.6,796.3z M468.1,806.3l7.9-14.2h1.7l-7.9,14.2H468.1z M481.6,801.9c0,2.9-1.8,4.4-3.8,4.4
			c-2.1,0-3.7-1.6-3.7-4.1c0-2.4,1.5-4.3,3.8-4.3C480.3,797.8,481.6,799.6,481.6,801.9z M476.5,802c0,1.4,0.5,2.5,1.4,2.5
			c0.9,0,1.4-0.9,1.4-2.5c0-1.4-0.4-2.5-1.4-2.5C476.9,799.6,476.5,800.7,476.5,802z"/>
	</g>
	<rect id="bar_1_" x="504" y="714.1" class="st20" width="50.8" height="231.9"/>
	<g id="ninetyTwo_1_">
		<path id="XMLID_338_" d="M511,708.5c0.4,0,0.8,0,1.4,0c1-0.1,2-0.3,2.7-0.8c0.9-0.6,1.5-1.5,1.7-2.5l-0.1,0c-0.6,0.6-1.5,1-2.7,1
			c-2.3,0-4.3-1.6-4.3-4.3c0-2.7,2.2-4.9,5.2-4.9c3.5,0,5.2,2.7,5.2,5.9c0,2.9-0.9,4.9-2.4,6.3c-1.3,1.2-3.1,1.8-5.2,1.9
			c-0.5,0-1.1,0-1.5,0V708.5z M512.9,701.6c0,1.2,0.6,2.2,1.9,2.2c0.9,0,1.5-0.4,1.8-0.9c0.1-0.2,0.2-0.4,0.2-0.8
			c0-1.5-0.5-2.9-2-2.9C513.7,699.2,512.9,700.1,512.9,701.6z"/>
		<path id="XMLID_336_" d="M521.7,710.8v-1.9l1.8-1.6c3-2.7,4.5-4.2,4.5-5.8c0-1.1-0.7-2-2.3-2c-1.2,0-2.2,0.6-2.9,1.1l-0.9-2.3
			c1-0.8,2.6-1.4,4.5-1.4c3.1,0,4.8,1.8,4.8,4.3c0,2.3-1.7,4.1-3.7,5.9l-1.3,1.1v0h5.2v2.6H521.7z"/>
		<path id="XMLID_330_" d="M540.6,700.9c0,2.9-1.8,4.4-3.8,4.4c-2.1,0-3.7-1.6-3.7-4.1c0-2.4,1.5-4.3,3.8-4.3
			C539.3,696.8,540.6,698.6,540.6,700.9z M535.5,701c0,1.4,0.5,2.5,1.4,2.5c0.9,0,1.4-0.9,1.4-2.5c0-1.4-0.4-2.5-1.4-2.5
			C535.9,698.6,535.5,699.7,535.5,701z M537,711l7.9-14.2h1.7l-7.9,14.2H537z M550.5,706.6c0,2.9-1.8,4.4-3.8,4.4
			c-2.1,0-3.7-1.6-3.7-4.1c0-2.4,1.5-4.3,3.8-4.3C549.2,702.5,550.5,704.3,550.5,706.6z M545.4,706.7c0,1.4,0.5,2.5,1.4,2.5
			c0.9,0,1.4-0.9,1.4-2.5c0-1.4-0.4-2.5-1.4-2.5C545.8,704.3,545.4,705.4,545.4,706.7z"/>
	</g>
	<rect id="barBorderv" x="293" y="679" class="st21" width="275.1" height="267.4"/>
</g>
<g id="Layer_3">
</g>
<line id="hLine" class="st21" x1="295.2" y1="101.9" x2="799" y2="101.9"/>
</svg>
